<svg xmlns="http://www.w3.org/2000/svg" xmlns:xlink="http://www.w3.org/1999/xlink" version="1.1" x="0px" y="0px" viewBox="0 0 26.736 33.42125" style="enable-background:new 0 0 26.736 26.737;" xml:space="preserve"><g><path d="M7.07,21.08l-0.354-0.354l5.137-5.136c2.644-0.616,8.359-0.581,13.602-5.824c2.122-2.121,1.415-5.657-0.707-7.778   c-2.121-2.121-5.656-2.828-7.778-0.707c-5.242,5.243-5.208,10.958-5.823,13.602L6.01,20.019l-0.353-0.354L0,25.322l1.414,1.415   L7.07,21.08z M12.431,13.394c0.459-2.912,1.151-7.311,5.247-11.406c1.747-1.747,4.663-0.993,6.363,0.707   c1.7,1.7,2.454,4.617,0.707,6.364c-4.095,4.095-8.494,4.788-11.405,5.246c-0.391,0.062-0.754,0.119-1.092,0.18   C12.313,14.148,12.369,13.784,12.431,13.394z"/><path d="M24.699,6.015c-0.146-0.927-0.656-1.904-1.365-2.613c-0.87-0.87-2.081-1.41-3.161-1.41c-0.721,0-1.322,0.236-1.789,0.702   c-3.705,3.704-4.467,7.722-4.922,10.579c2.78-0.441,6.839-1.183,10.579-4.922C24.774,7.619,24.804,6.677,24.699,6.015z"/></g><text x="0" y="41.736999999999995" fill="#000000" font-size="5px" font-weight="bold" font-family="'Helvetica Neue', Helvetica, Arial-Unicode, Arial, Sans-serif">Created by Hea Poh Lin</text><text x="0" y="46.736999999999995" fill="#000000" font-size="5px" font-weight="bold" font-family="'Helvetica Neue', Helvetica, Arial-Unicode, Arial, Sans-serif">from the Noun Project</text></svg>